<svg width="939" height="128" viewBox="0 0 939 128" fill="none" xmlns="http://www.w3.org/2000/svg">
<path d="M37.8655 30.4142V126.216H72.7621V30.4142H110.438V2.78588H0V30.4142H37.8655Z" fill="#FAFAFA"/>
<path d="M207.78 87.4545C215.317 83.6765 221.265 78.706 225.624 71.9518C229.782 65.1975 231.971 57.4412 231.971 48.4923C231.971 39.353 229.592 31.2058 225.224 24.2411C220.665 17.2865 214.318 12.1156 206.191 8.33759C197.864 4.55962 188.148 2.76583 177.242 2.76583H120.934V30.1937H175.063C182 30.1937 187.558 31.7871 191.327 34.9637C194.895 38.1404 196.875 42.7101 196.875 48.2818C196.875 54.044 194.895 58.4132 191.327 61.5999C187.558 64.7766 182.21 66.1696 175.063 66.1696H120.934V125.996H155.83V93.2166H174.863L197.264 126.016H234.54L207.78 87.4545Z" fill="#FAFAFA"/>
<path d="M332.293 2.77586H297.996L243.477 126.216H279.163L288.879 102.166L298.985 76.321L314.849 36.7676L330.713 76.321L340.819 102.166L350.536 126.216H386.822L332.293 2.77586Z" fill="#FAFAFA"/>
<path d="M414.181 119.853C424.297 125.415 435.993 128 449.078 128C460.384 128 470.29 126.016 479.606 122.037C488.533 118.059 496.06 112.297 502.207 104.741L480.006 84.6686C471.879 94.4091 462.163 99.1792 451.057 99.1792C444.32 99.1792 438.372 97.7863 433.014 94.8C427.666 92.0241 423.698 87.8453 420.919 82.484C418.14 77.1127 416.76 70.9497 416.76 63.995C416.76 57.0403 418.15 50.8773 420.919 45.7064C423.698 40.3351 427.856 36.1663 433.014 33.19C438.372 30.4041 444.32 28.8208 451.057 28.8208C462.363 28.8208 472.079 33.7913 480.006 43.3314L502.207 23.2591C496.26 15.9035 488.723 9.94097 479.606 5.9726C470.49 1.98419 460.384 0 449.078 0C435.993 0 424.497 2.78588 414.181 8.34761C404.075 13.9093 395.938 21.4653 389.991 31.0054C384.043 40.9464 381.264 51.8794 381.264 64.1954C381.264 76.5214 384.043 87.6449 389.991 97.3854C395.938 106.936 404.075 114.492 414.181 119.853Z" fill="#FAFAFA"/>
<path d="M545.431 30.4142V126.216H580.328V30.4142H618.003V2.78588H507.765V30.4142H545.431Z" fill="#FAFAFA"/>
<path d="M663.406 2.77586H628.509V126.206H663.406V2.77586Z" fill="#FAFAFA"/>
<path d="M759.759 2.77586H725.462L671.143 126.216H706.619L716.345 102.166L726.451 76.321L742.315 36.7676L758.179 76.321L768.286 102.166L778.002 126.216H814.288L759.759 2.77586Z" fill="#FAFAFA"/>
<path d="M822.015 126.216H856.112L856.312 89.2483L822.215 45.7164L822.015 126.216ZM904.893 2.77586L904.693 38.1605L938.8 79.5077L939 2.78588H904.893V2.77586ZM904.893 68.5746L850.574 2.77586H821.825V19.2706L910.241 126.407H938.99V112.096L904.893 68.5746Z" fill="#FAFAFA"/>
</svg>
