<svg width="940" height="128" viewBox="0 0 940 128" fill="none" xmlns="http://www.w3.org/2000/svg">
<path d="M37.88 30.35V125.95H72.79V30.35H110.48V2.78H0V30.35H37.88Z" fill="#005EFA"/>
<path d="M207.86 87.27C215.4 83.5 221.35 78.54 225.71 71.8C229.87 65.06 232.06 57.32 232.06 48.39C232.06 39.27 229.68 31.14 225.31 24.19C220.75 17.25 214.4 12.09 206.27 8.32C197.94 4.55 188.22 2.76 177.31 2.76H120.98V30.13H175.13C182.07 30.13 187.63 31.72 191.4 34.89C194.97 38.06 196.95 42.62 196.95 48.18C196.95 53.93 194.97 58.29 191.4 61.47C187.63 64.64 182.28 66.03 175.13 66.03H120.98V125.73H155.89V93.02H174.93L197.34 125.75H234.63L207.86 87.27Z" fill="#005EFA"/>
<path d="M332.42 2.77H298.11L243.57 125.95H279.27L288.99 101.95L299.1 76.16L314.97 36.69L330.84 76.16L340.95 101.95L350.67 125.95H386.97L332.42 2.77Z" fill="#005EFA"/>
<path d="M414.34 119.6C424.46 125.15 436.16 127.73 449.25 127.73C460.56 127.73 470.47 125.75 479.79 121.78C488.72 117.81 496.25 112.06 502.4 104.52L480.19 84.49C472.06 94.21 462.34 98.97 451.23 98.97C444.49 98.97 438.54 97.58 433.18 94.6C427.83 91.83 423.86 87.66 421.08 82.31C418.3 76.95 416.92 70.8 416.92 63.86C416.92 56.92 418.31 50.77 421.08 45.61C423.86 40.25 428.02 36.09 433.18 33.12C438.54 30.34 444.49 28.76 451.23 28.76C462.54 28.76 472.26 33.72 480.19 43.24L502.4 23.21C496.45 15.87 488.91 9.92 479.79 5.96C470.67 1.98 460.56 0 449.25 0C436.16 0 424.66 2.78 414.34 8.33C404.23 13.88 396.09 21.42 390.14 30.94C384.19 40.86 381.41 51.77 381.41 64.06C381.41 76.36 384.19 87.46 390.14 97.18C396.09 106.71 404.23 114.25 414.34 119.6Z" fill="#005EFA"/>
<path d="M545.64 30.35V125.95H580.55V30.35H618.24V2.78H507.96V30.35H545.64Z" fill="#005EFA"/>
<path d="M663.66 2.77H628.75V125.94H663.66V2.77Z" fill="#005EFA"/>
<path d="M760.05 2.77H725.74L671.4 125.95H706.89L716.62 101.95L726.73 76.16L742.6 36.69L758.47 76.16L768.58 101.95L778.3 125.95H814.6L760.05 2.77Z" fill="#005EFA"/>
<path d="M822.33 125.95H856.44L856.64 89.06L822.53 45.62L822.33 125.95ZM905.24 2.77L905.04 38.08L939.16 79.34L939.36 2.78H905.24V2.77ZM905.24 68.43L850.9 2.77H822.14V19.23L910.59 126.14H939.35V111.86L905.24 68.43Z" fill="#005EFA"/>
</svg>
